<svg width="58" height="48" viewBox="0 0 58 48" fill="none" xmlns="http://www.w3.org/2000/svg">
<path d="M17.0027 0C19.2698 0 21.4278 0.479564 23.4768 1.43869C25.5259 2.39782 27.2916 3.74932 28.7738 5.49319C30.2561 3.74932 32.0218 2.39782 34.0708 1.43869C36.1199 0.479564 38.2779 0 40.545 0C44.6431 0 48.0654 1.3733 50.812 4.11989C53.5586 6.86648 54.9319 10.2888 54.9319 14.3869C54.9319 14.6049 54.9205 14.8229 54.8979 15.0409C54.8752 15.2589 54.8647 15.4768 54.8665 15.6948H49.6349C49.6785 15.4768 49.7003 15.2589 49.7003 15.0409V14.3869C49.7003 11.7711 48.8283 9.59128 47.0845 7.84741C45.3406 6.10354 43.1608 5.23161 40.545 5.23161C38.4959 5.23161 36.5995 5.8097 34.8556 6.96589C33.1117 8.12207 31.9128 9.59302 31.2589 11.3787H26.2888C25.6349 9.59128 24.436 8.12033 22.6921 6.96589C20.9482 5.81144 19.0518 5.23335 17.0027 5.23161C14.3869 5.23161 12.2071 6.10354 10.4632 7.84741C8.71935 9.59128 7.84741 11.7711 7.84741 14.3869V15.0409C7.84741 15.2589 7.86921 15.4768 7.91281 15.6948H2.6812C2.6812 15.4768 2.66986 15.2589 2.64719 15.0409C2.62452 14.8229 2.61406 14.6049 2.6158 14.3869C2.6158 10.2888 3.9891 6.86648 6.73569 4.11989C9.48229 1.3733 12.9046 0 17.0027 0ZM11.248 31.3896H18.5722C19.9673 32.7411 21.4932 34.2016 23.1499 35.7711C24.8065 37.3406 26.6812 39.0627 28.7738 40.9373C30.8665 39.0627 32.7411 37.3406 34.3978 35.7711C36.0545 34.2016 37.5804 32.7411 38.9755 31.3896H46.3651C44.7084 33.2207 42.7466 35.2044 40.4796 37.3406C38.2125 39.4768 35.5749 41.8965 32.5668 44.5995L28.7738 48L24.9809 44.5995C21.9728 41.8965 19.3456 39.4768 17.0995 37.3406C14.8534 35.2044 12.9029 33.2207 11.248 31.3896ZM26.2888 34.0054C26.8556 34.0054 27.3465 33.8415 27.7615 33.5137C28.1766 33.1858 28.4704 32.7612 28.6431 32.2398L32.1744 21.5804L34.4632 24.9809C34.6812 25.3297 34.9864 25.6131 35.3787 25.8311C35.7711 26.049 36.1853 26.158 36.6213 26.158H57.5477V20.9264H38.1253L33.6131 14.2561C33.3515 13.8638 33.0141 13.569 32.6008 13.372C32.1875 13.1749 31.7402 13.0773 31.2589 13.079C30.6921 13.079 30.2021 13.2429 29.7888 13.5708C29.3755 13.8986 29.0808 14.3233 28.9046 14.8447L25.3733 25.4387L23.1499 22.1035C22.9319 21.7548 22.6267 21.4714 22.2343 21.2534C21.842 21.0354 21.4278 20.9264 20.9918 20.9264H0V26.158H19.4223L23.9346 32.8283C24.1962 33.2207 24.5345 33.5154 24.9495 33.7125C25.3646 33.9095 25.811 34.0072 26.2888 34.0054Z" fill="#108DE9"/>
</svg>
