<svg width="48" height="48" viewBox="0 0 48 48" fill="none" xmlns="http://www.w3.org/2000/svg">
<path d="M24.0004 12C25.0942 12 26.1254 11.8438 27.0942 11.5312C28.0629 11.2188 29.0317 10.875 30.0004 10.5C30.9692 10.125 31.9301 9.78125 32.8832 9.46875C33.8364 9.15625 34.8754 9 36.0004 9V12C35.3129 12 34.6567 12.0703 34.0317 12.2109C33.4067 12.3516 32.7973 12.5391 32.2035 12.7734C31.6098 13.0078 31.0004 13.25 30.3754 13.5C29.7504 13.75 29.1176 13.9922 28.477 14.2266C27.8364 14.4609 27.141 14.6406 26.391 14.7656C25.641 14.8906 24.8442 14.9688 24.0004 15C23.141 15 22.3442 14.9297 21.6098 14.7891C20.8754 14.6484 20.1801 14.4609 19.5239 14.2266C18.8676 13.9922 18.2426 13.75 17.6489 13.5C17.0551 13.25 16.4457 13.0078 15.8207 12.7734C15.1957 12.5391 14.5785 12.3594 13.9692 12.2344C13.3598 12.1094 12.7035 12.0312 12.0004 12V9C13.0785 9 14.1098 9.15625 15.0942 9.46875C16.0785 9.78125 17.0473 10.125 18.0004 10.5C18.9535 10.875 19.9223 11.2188 20.9067 11.5312C21.891 11.8438 22.9223 12 24.0004 12ZM48.0004 13.5703C48.0004 16.3359 47.7973 19.1484 47.391 22.0078C46.9848 24.8672 46.391 27.7031 45.6098 30.5156C44.8285 33.3281 43.8442 36.0547 42.6567 38.6953C41.4692 41.3359 40.1176 43.8281 38.602 46.1719C38.227 46.7344 37.7504 47.1797 37.1723 47.5078C36.5942 47.8359 35.9614 48 35.2739 48C34.4145 48 33.641 47.7578 32.9535 47.2734C32.266 46.7891 31.7895 46.1328 31.5239 45.3047L27.352 32.8359C26.8051 32.8984 26.2504 32.9375 25.6879 32.9531C25.1254 32.9688 24.5629 32.9844 24.0004 33C23.4379 33 22.8754 32.9922 22.3129 32.9766C21.7504 32.9609 21.1957 32.9141 20.6489 32.8359L16.477 45.3047C16.2114 46.1172 15.7348 46.7656 15.0473 47.25C14.3598 47.7344 13.5864 47.9844 12.727 48C12.0395 48 11.4067 47.8359 10.8285 47.5078C10.2504 47.1797 9.77386 46.7344 9.39886 46.1719C7.8676 43.8438 6.51604 41.3594 5.34417 38.7188C4.17229 36.0781 3.19573 33.3516 2.41448 30.5391C1.63323 27.7266 1.03167 24.8906 0.609792 22.0312C0.187917 19.1719 -0.0152076 16.3516 0.000417437 13.5703C0.000417437 11.8203 0.266042 10.1328 0.797292 8.50781C1.32854 6.88281 2.10198 5.4375 3.11761 4.17188C4.13323 2.90625 5.38323 1.89844 6.8676 1.14844C8.35198 0.398438 10.0473 0.015625 11.9535 0C13.0629 0 14.102 0.15625 15.0707 0.46875C16.0395 0.78125 17.0082 1.125 17.977 1.5C18.9457 1.875 19.9067 2.21875 20.8598 2.53125C21.8129 2.84375 22.8598 3 24.0004 3C25.1098 3 26.1489 2.84375 27.1176 2.53125C28.0864 2.21875 29.0551 1.875 30.0239 1.5C30.9926 1.125 31.9535 0.78125 32.9067 0.46875C33.8598 0.15625 34.9067 0 36.0473 0C37.9535 0 39.6489 0.375 41.1332 1.125C42.6176 1.875 43.8676 2.88281 44.8832 4.14844C45.8989 5.41406 46.6723 6.85938 47.2035 8.48438C47.7348 10.1094 48.0004 11.8047 48.0004 13.5703ZM45.0004 13.6172C45.0004 12.1641 44.8051 10.7969 44.4145 9.51562C44.0239 8.23438 43.4379 7.10938 42.6567 6.14062C41.8754 5.17188 40.891 4.40625 39.7035 3.84375C38.516 3.28125 37.1489 3 35.602 3C34.6957 3 33.8285 3.15625 33.0004 3.46875C32.1723 3.78125 31.2973 4.125 30.3754 4.5C29.4535 4.875 28.4848 5.21875 27.4692 5.53125C26.4535 5.84375 25.2973 6 24.0004 6C22.7035 6 21.5473 5.84375 20.5317 5.53125C19.516 5.21875 18.5473 4.875 17.6254 4.5C16.7035 4.125 15.8129 3.78125 14.9535 3.46875C14.0942 3.15625 13.141 3 12.0942 3C10.5785 3 9.25042 3.29688 8.10979 3.89062C6.96917 4.48438 6.02386 5.27344 5.27386 6.25781C4.52386 7.24219 3.95354 8.36719 3.56292 9.63281C3.17229 10.8984 2.98479 12.2266 3.00042 13.6172C3.00042 15.1484 3.08635 16.7969 3.25823 18.5625C3.43011 20.3281 3.69573 22.1562 4.05511 24.0469C4.41448 25.9375 4.84417 27.8203 5.34417 29.6953C5.84417 31.5703 6.4301 33.4141 7.10198 35.2266C7.77385 37.0391 8.51604 38.7266 9.32854 40.2891C10.141 41.8516 11.016 43.2734 11.9535 44.5547C12.1879 44.8516 12.4848 45 12.8442 45C13.0317 45 13.2739 44.7188 13.5707 44.1562C13.8676 43.5938 14.1801 42.8594 14.5082 41.9531C14.8364 41.0469 15.1879 40.0625 15.5629 39C15.9379 37.9375 16.2739 36.8984 16.5707 35.8828C16.8676 34.8672 17.1567 33.9453 17.4379 33.1172C17.7192 32.2891 17.9067 31.6875 18.0004 31.3125C18.1254 30.9062 18.3598 30.5547 18.7035 30.2578C19.0473 29.9609 19.4535 29.8047 19.9223 29.7891C20.6098 29.7891 21.2895 29.8203 21.9614 29.8828C22.6332 29.9453 23.3129 29.9844 24.0004 30C24.6879 30 25.3676 29.9688 26.0395 29.9062C26.7114 29.8438 27.391 29.8047 28.0785 29.7891C28.5317 29.7891 28.9301 29.9375 29.2739 30.2344C29.6176 30.5312 29.8598 30.8906 30.0004 31.3125C30.1254 31.6875 30.3129 32.2891 30.5629 33.1172C30.8129 33.9453 31.0942 34.8594 31.4067 35.8594C31.7192 36.8594 32.0629 37.9062 32.4379 39C32.8129 40.0938 33.1567 41.0781 33.4692 41.9531C33.7817 42.8281 34.102 43.5547 34.4301 44.1328C34.7582 44.7109 35.0004 45 35.1567 45C35.516 45 35.8129 44.8516 36.0473 44.5547C36.9848 43.3047 37.8598 41.8828 38.6723 40.2891C39.4848 38.6953 40.2192 37.0078 40.8754 35.2266C41.5317 33.4453 42.1176 31.6094 42.6332 29.7188C43.1489 27.8281 43.5785 25.9453 43.9223 24.0703C44.266 22.1953 44.5317 20.3672 44.7192 18.5859C44.9067 16.8047 45.0004 15.1484 45.0004 13.6172Z" fill="#108DE9"/>
</svg>
