<svg width="44" height="48" viewBox="0 0 44 48" fill="none" xmlns="http://www.w3.org/2000/svg">
<path fill-rule="evenodd" clip-rule="evenodd" d="M19.4099 0H24.125C28.2285 0 31.4791 0 34.022 0.341581C36.6385 0.694326 38.7572 1.43553 40.4294 3.10549C42.0993 4.77767 42.8406 6.89637 43.1933 9.51293C43.5349 12.058 43.5349 15.3064 43.5349 19.4099V28.5901C43.5349 32.6936 43.5349 35.9442 43.1933 38.4871C42.8406 41.1036 42.0993 43.2223 40.4294 44.8945C38.7572 46.5645 36.6385 47.3057 34.022 47.6584C31.4768 48 28.2285 48 24.125 48H19.4099C15.3064 48 12.0558 48 9.51293 47.6584C6.89637 47.3057 4.77767 46.5645 3.10549 44.8945C1.43553 43.2223 0.694326 41.1036 0.341582 38.4871C2.66142e-07 35.942 0 32.6936 0 28.5901V19.4099C0 15.3064 2.66142e-07 12.0558 0.341582 9.51293C0.694326 6.89637 1.43553 4.77767 3.10549 3.10549C4.77767 1.43553 6.89637 0.694326 9.51293 0.341581C12.058 0 15.3064 0 19.4099 0ZM9.95721 3.6614C7.71126 3.96279 6.41637 4.52986 5.46977 5.47423C4.52763 6.4186 3.96056 7.71349 3.65916 9.95944C3.35107 12.2545 3.34661 15.2774 3.34661 19.5349V28.4651C3.34661 32.7226 3.35107 35.7477 3.65916 38.0428C3.96056 40.2865 4.52763 41.5814 5.472 42.5258C6.41637 43.4701 7.71126 44.0372 9.95721 44.3386C12.2523 44.6467 15.2752 44.6512 19.5327 44.6512H23.9978C28.2553 44.6512 31.2804 44.6467 33.5754 44.3386C35.8192 44.0372 37.1141 43.4701 38.0584 42.5258C39.0028 41.5814 39.5699 40.2865 39.8713 38.0406C40.1793 35.7477 40.1838 32.7226 40.1838 28.4651V19.5349C40.1838 15.2774 40.1793 12.2545 39.8713 9.95721C39.5699 7.71349 39.0028 6.4186 38.0584 5.47423C37.1141 4.52986 35.8192 3.96279 33.5732 3.6614C31.2804 3.3533 28.2553 3.34884 23.9978 3.34884H19.5327C15.2752 3.34884 12.2545 3.3533 9.95721 3.6614ZM21.7674 8.93023C22.2115 8.93023 22.6374 9.10664 22.9514 9.42066C23.2654 9.73467 23.4419 10.1606 23.4419 10.6047V13.3953H26.2326C26.6766 13.3953 27.1025 13.5718 27.4166 13.8858C27.7306 14.1998 27.907 14.6257 27.907 15.0698C27.907 15.5139 27.7306 15.9397 27.4166 16.2538C27.1025 16.5678 26.6766 16.7442 26.2326 16.7442H23.4419V19.5349C23.4419 19.979 23.2654 20.4049 22.9514 20.7189C22.6374 21.0329 22.2115 21.2093 21.7674 21.2093C21.3234 21.2093 20.8975 21.0329 20.5835 20.7189C20.2694 20.4049 20.093 19.979 20.093 19.5349V16.7442H17.3023C16.8582 16.7442 16.4323 16.5678 16.1183 16.2538C15.8043 15.9397 15.6279 15.5139 15.6279 15.0698C15.6279 14.6257 15.8043 14.1998 16.1183 13.8858C16.4323 13.5718 16.8582 13.3953 17.3023 13.3953H20.093V10.6047C20.093 10.1606 20.2694 9.73467 20.5835 9.42066C20.8975 9.10664 21.3234 8.93023 21.7674 8.93023ZM11.1628 28.4651C11.1628 28.021 11.3392 27.5951 11.6532 27.2811C11.9672 26.9671 12.3931 26.7907 12.8372 26.7907H30.6977C31.1418 26.7907 31.5677 26.9671 31.8817 27.2811C32.1957 27.5951 32.3721 28.021 32.3721 28.4651C32.3721 28.9092 32.1957 29.3351 31.8817 29.6491C31.5677 29.9631 31.1418 30.1395 30.6977 30.1395H12.8372C12.3931 30.1395 11.9672 29.9631 11.6532 29.6491C11.3392 29.3351 11.1628 28.9092 11.1628 28.4651ZM13.3953 37.3954C13.3953 36.9513 13.5718 36.5254 13.8858 36.2114C14.1998 35.8973 14.6257 35.7209 15.0698 35.7209H28.4651C28.9092 35.7209 29.3351 35.8973 29.6491 36.2114C29.9631 36.5254 30.1395 36.9513 30.1395 37.3954C30.1395 37.8394 29.9631 38.2653 29.6491 38.5793C29.3351 38.8934 28.9092 39.0698 28.4651 39.0698H15.0698C14.6257 39.0698 14.1998 38.8934 13.8858 38.5793C13.5718 38.2653 13.3953 37.8394 13.3953 37.3954Z" fill="#108DE9"/>
</svg>
