<svg width="58" height="47" viewBox="0 0 58 47" fill="none" xmlns="http://www.w3.org/2000/svg">
<path d="M58 23.5C57.9967 20.9974 57.2527 18.549 55.8575 16.4494C54.4623 14.3498 52.4753 12.6885 50.1356 11.6654V11.0248C50.1331 8.58967 49.3056 6.22371 47.782 4.29553C46.2584 2.36735 44.1243 0.985246 41.7121 0.364536C39.2999 -0.256175 36.7452 -0.0806293 34.4459 0.863823C32.1466 1.80827 30.2318 3.46859 28.9999 5.58611C27.7681 3.46859 25.8533 1.80827 23.554 0.863823C21.2547 -0.0806293 18.6999 -0.256175 16.2878 0.364536C13.8756 0.985246 11.7414 2.36735 10.2179 4.29553C8.69426 6.22371 7.86676 8.58967 7.86429 11.0248V11.6654C5.52278 12.6851 3.53399 14.3451 2.13837 16.4447C0.742739 18.5443 3.05176e-05 20.9935 3.05176e-05 23.4964C3.05176e-05 25.9993 0.742739 28.4485 2.13837 30.5481C3.53399 32.6477 5.52278 34.3077 7.86429 35.3274V35.9752C7.86676 38.4103 8.69426 40.7763 10.2179 42.7045C11.7414 44.6326 13.8756 46.0148 16.2878 46.6355C18.6999 47.2562 21.2547 47.0806 23.554 46.1362C25.8533 45.1917 27.7681 43.5314 28.9999 41.4139C30.2318 43.5314 32.1466 45.1917 34.4459 46.1362C36.7452 47.0806 39.2999 47.2562 41.7121 46.6355C44.1243 46.0148 46.2584 44.6326 47.782 42.7045C49.3056 40.7763 50.1331 38.4103 50.1356 35.9752V35.3274C52.4753 34.3063 54.4625 32.6464 55.8579 30.5479C57.2532 28.4494 57.9972 26.0018 58 23.5ZM19.1694 44.132C16.9977 44.1331 14.9109 43.3087 13.3511 41.8336C11.7913 40.3584 10.8812 38.3484 10.8134 36.2295C11.6236 36.3795 12.4465 36.455 13.2711 36.455H15.2372C15.6283 36.455 16.0033 36.3033 16.2799 36.0334C16.5564 35.7635 16.7118 35.3973 16.7118 35.0156C16.7118 34.6338 16.5564 34.2677 16.2799 33.9977C16.0033 33.7278 15.6283 33.5761 15.2372 33.5761H13.2711C10.8347 33.578 8.47609 32.7386 6.61269 31.2063C4.74929 29.6741 3.5012 27.5478 3.08925 25.2037C2.67731 22.8595 3.12807 20.4487 4.36179 18.3978C5.5955 16.3469 7.53263 14.7881 9.8304 13.9973C10.118 13.898 10.367 13.7141 10.5431 13.4709C10.7191 13.2277 10.8136 12.9372 10.8134 12.6394V11.0248C10.8134 8.86148 11.6938 6.78675 13.2609 5.25704C14.8279 3.72734 16.9533 2.86796 19.1694 2.86796C21.3855 2.86796 23.5109 3.72734 25.078 5.25704C26.645 6.78675 27.5254 8.86148 27.5254 11.0248V28.5501C26.4677 27.4124 25.1779 26.5035 23.7388 25.8816C22.2997 25.2598 20.7432 24.9388 19.1694 24.9394C18.7783 24.9394 18.4033 25.0911 18.1267 25.361C17.8502 25.631 17.6948 25.9971 17.6948 26.3789C17.6948 26.7607 17.8502 27.1268 18.1267 27.3967C18.4033 27.6667 18.7783 27.8183 19.1694 27.8183C21.3855 27.8183 23.5109 28.6777 25.078 30.2074C26.645 31.7371 27.5254 33.8119 27.5254 35.9752C27.5254 38.1385 26.645 40.2132 25.078 41.743C23.5109 43.2727 21.3855 44.132 19.1694 44.132ZM44.7288 33.5761H42.7627C42.3716 33.5761 41.9965 33.7278 41.72 33.9977C41.4435 34.2677 41.2881 34.6338 41.2881 35.0156C41.2881 35.3973 41.4435 35.7635 41.72 36.0334C41.9965 36.3033 42.3716 36.455 42.7627 36.455H44.7288C45.5534 36.455 46.3762 36.3795 47.1864 36.2295C47.1353 37.831 46.602 39.3823 45.6533 40.6898C44.7046 41.9973 43.3824 43.0032 41.8518 43.5817C40.3211 44.1603 38.6498 44.286 37.0465 43.9431C35.4431 43.6002 33.9787 42.804 32.836 41.6538C31.6933 40.5035 30.923 39.0502 30.6211 37.4753C30.3192 35.9003 30.4992 34.2735 31.1386 32.7978C31.778 31.3221 32.8485 30.0629 34.2164 29.1773C35.5843 28.2918 37.1891 27.8191 38.8305 27.8183C39.2216 27.8183 39.5966 27.6667 39.8732 27.3967C40.1497 27.1268 40.3051 26.7607 40.3051 26.3789C40.3051 25.9971 40.1497 25.631 39.8732 25.361C39.5966 25.0911 39.2216 24.9394 38.8305 24.9394C37.2567 24.9388 35.7002 25.2598 34.2611 25.8816C32.822 26.5035 31.5322 27.4124 30.4745 28.5501V11.0248C30.4745 8.86148 31.3549 6.78675 32.9219 5.25704C34.489 3.72734 36.6143 2.86796 38.8305 2.86796C41.0466 2.86796 43.172 3.72734 44.739 5.25704C46.3061 6.78675 47.1864 8.86148 47.1864 11.0248V12.6394C47.1863 12.9372 47.2807 13.2277 47.4568 13.4709C47.6329 13.7141 47.8819 13.898 48.1695 13.9973C50.4673 14.7881 52.4044 16.3469 53.6381 18.3978C54.8718 20.4487 55.3226 22.8595 54.9106 25.2037C54.4987 27.5478 53.2506 29.6741 51.3872 31.2063C49.5238 32.7386 47.1652 33.578 44.7288 33.5761ZM48.1695 20.6211C48.1695 21.0029 48.0141 21.369 47.7376 21.639C47.4611 21.9089 47.086 22.0606 46.6949 22.0606H45.7119C43.4957 22.0606 41.3703 21.2012 39.8033 19.6715C38.2363 18.1418 37.3559 16.067 37.3559 13.9037V12.9441C37.3559 12.5623 37.5113 12.1962 37.7878 11.9262C38.0643 11.6563 38.4394 11.5046 38.8305 11.5046C39.2216 11.5046 39.5966 11.6563 39.8732 11.9262C40.1497 12.1962 40.3051 12.5623 40.3051 12.9441V13.9037C40.3051 15.3035 40.8747 16.646 41.8887 17.6358C42.9026 18.6256 44.2779 19.1817 45.7119 19.1817H46.6949C47.086 19.1817 47.4611 19.3333 47.7376 19.6033C48.0141 19.8732 48.1695 20.2393 48.1695 20.6211ZM12.288 22.0606H11.305C10.9139 22.0606 10.5388 21.9089 10.2623 21.639C9.98575 21.369 9.8304 21.0029 9.8304 20.6211C9.8304 20.2393 9.98575 19.8732 10.2623 19.6033C10.5388 19.3333 10.9139 19.1817 11.305 19.1817H12.288C13.722 19.1817 15.0972 18.6256 16.1112 17.6358C17.1252 16.646 17.6948 15.3035 17.6948 13.9037V12.9441C17.6948 12.5623 17.8502 12.1962 18.1267 11.9262C18.4033 11.6563 18.7783 11.5046 19.1694 11.5046C19.5605 11.5046 19.9356 11.6563 20.2121 11.9262C20.4886 12.1962 20.644 12.5623 20.644 12.9441V13.9037C20.644 16.067 19.7636 18.1418 18.1966 19.6715C16.6295 21.2012 14.5042 22.0606 12.288 22.0606Z" fill="#108DE9"/>
</svg>
